<svg width="894" height="672" viewBox="0 0 894 672" fill="none" xmlns="http://www.w3.org/2000/svg">
<g clip-path="url(#clip0)">
<path d="M363.83 427.465C364.064 427.258 364.283 427.031 364.483 426.795L376.743 412.459C383.45 404.621 384.928 393.782 380.51 384.853L355.268 333.759L336.441 288.555L329.443 260.247C332.29 259.744 334.669 257.541 335.072 254.563C335.562 250.968 333.036 247.77 329.425 247.415L326.191 247.096L323.754 237.236C326.357 236.554 328.453 234.395 328.836 231.608C329.326 228.013 326.8 224.815 323.189 224.459L320.534 224.198L317.757 212.965C320.138 212.152 322.015 210.083 322.372 207.464C322.862 203.869 320.336 200.671 316.725 200.316L314.581 200.104L311.714 188.505C314.77 188.533 317.609 186.437 318.397 183.357C319.303 179.828 317.171 176.346 313.645 175.579L311.801 175.18L322.85 137.602C323.266 136.179 323.196 134.674 322.646 133.33L315.227 115.271C313.148 110.208 308.404 107 302.834 106.884C297.266 106.761 292.155 109.764 289.575 114.561L271.152 146.809C257.062 141.531 244.082 138.133 239.51 136.999C236.695 133.033 239.849 119.195 251.737 98.7042C253.807 95.1316 254.17 90.9309 252.727 87.1833C251.279 83.4229 248.205 80.5964 244.286 79.4397L218.156 71.7727C216.529 71.2955 214.759 71.4726 213.213 72.262L211.353 73.2166C209.769 71.923 207.596 71.4605 205.512 72.0291L171.862 81.2763C169.299 81.9814 167.354 84.1147 166.907 86.7065L166.196 90.848L152.811 98.115C136.669 106.055 126.47 107.062 122.491 101.076C121.312 99.3467 119.359 98.2841 117.213 98.2717C106.985 98.2344 99.0202 101.538 93.5114 108.1L77.6875 116.796C70.2263 120.895 64.7365 127.914 62.6222 136.048C60.5115 144.179 61.9587 152.729 66.5923 159.501L113.644 228.293L187.303 321.539C188.091 322.537 189.171 323.271 190.399 323.647L198.799 326.217L199.507 335.27C199.608 336.52 200.069 337.7 200.835 338.67C200.875 338.721 200.915 338.771 200.956 338.816L239.909 385.127C240.86 386.259 242.186 387.017 243.664 387.278L252.862 388.88L254.075 397.494C254.297 399.076 255.114 400.499 256.343 401.494C259.277 403.856 328.572 458.901 363.83 427.465ZM354.879 418.176C352.079 420.579 348.838 422.159 345.286 423.093C345.192 423.031 345.133 422.935 345.031 422.879C333.89 416.924 323.819 409.203 314.805 400.654C314.903 400.275 315.025 399.905 315.018 399.5L314.174 348.169C328.958 363.748 353.61 388.144 369.831 395.976C369.869 398.901 368.841 401.843 366.816 404.214L354.879 418.176ZM301.083 120.533C301.17 120.371 301.404 119.94 302.07 119.956C302.736 119.972 302.917 120.409 302.987 120.578L309.561 136.567L302.074 162.032C296.54 158.226 290.022 154.787 283.251 151.762L301.083 120.533ZM216.531 85.065L240.127 91.9913L242.21 85.7158L240.364 92.4995C223.668 121.282 220.846 140.057 232.059 148.26C232.749 148.766 233.536 149.13 234.377 149.324C234.755 149.414 269.587 157.646 290.866 170.623L279.354 168.119C275.828 167.352 272.232 169.59 271.33 173.116C270.81 175.147 271.294 177.162 272.473 178.655C273.341 179.754 274.588 180.57 276.083 180.894L297.288 185.506L300.554 198.717L299.981 198.661C296.374 198.302 293.047 200.931 292.56 204.523C292.315 206.32 292.826 208.018 293.849 209.312C294.871 210.606 296.404 211.497 298.209 211.674L303.896 212.234L306.512 222.811L304.72 222.634C301.113 222.276 297.786 224.905 297.299 228.496C297.054 230.294 297.565 231.991 298.588 233.285C299.61 234.58 301.143 235.47 302.948 235.648L309.855 236.328L312.175 245.71L311.535 245.647C307.928 245.289 304.6 247.917 304.114 251.509C303.869 253.306 304.38 255.004 305.403 256.298C306.425 257.592 307.958 258.483 309.763 258.661L315.518 259.227L323.756 292.565C323.832 292.878 323.931 293.183 324.054 293.474L343.233 339.483L364.342 382.244C348.379 370.804 328.064 349.928 318.715 339.985C316.553 337.686 313.214 337.034 310.211 338.311C307.198 339.597 305.292 342.499 305.342 345.699L306.097 391.818C304.857 390.471 303.638 389.114 302.447 387.75C303.228 386.783 303.646 385.55 303.431 384.264L281.098 251.179C284.884 251.275 288.503 249.555 290.886 246.365C293.726 242.566 294.046 237.749 291.731 233.798L274.091 203.721C268.852 194.794 261.047 187.84 251.636 183.681L232.021 174.256L209.931 87.8808C210.757 87.7974 211.58 87.6018 212.362 87.2032L216.531 85.065ZM173.444 101.592C174.219 104.422 179.958 126.813 167.451 125.581C157.704 124.622 141.025 120.173 132.721 117.838C139.948 117.291 148.558 114.589 158.573 109.66L173.444 101.592ZM281.014 242.406L248.097 235.771C247.715 234.698 247.329 233.619 246.905 232.486L234.877 185.453L247.681 191.606C255.601 195.109 262.082 200.875 266.439 208.304L284.079 238.381C284.877 239.743 284.207 240.902 283.882 241.339C283.557 241.777 282.637 242.755 281.014 242.406ZM212.415 213.668C212.415 213.668 216.186 227.684 196.403 221.637L192.802 205.231C187.974 177.786 167.913 170.344 160.65 168.529L152.144 146.419L170.445 155.143C170.445 155.143 201.211 163.679 203.88 183.465L212.415 213.668ZM202.729 250.41L202.715 250.4L202.641 250.069L202.729 250.41ZM251.207 245.355L271.853 249.517L293.119 376.274C275.962 353.697 265.16 331.032 260.924 321.318C259.259 317.505 256.85 314.104 253.749 311.207L241.312 299.591L235.921 280.741C234.407 275.457 231.521 270.725 227.619 266.966L246.27 274.953C246.262 274.965 260.586 277.864 251.207 245.355ZM83.7599 128.173L100.805 118.808C101.673 118.331 102.427 117.675 103.019 116.885C104.321 115.139 106.496 112.994 110.864 111.963L128.149 125.976C134.434 131.077 139.288 137.768 142.194 145.324L153.231 174.012C153.791 175.468 155.11 176.484 156.681 176.661C156.908 176.689 179.302 179.59 184.166 207.203L194.487 254.239C194.725 255.332 195.38 256.27 196.32 256.863L217.815 270.507C222.496 273.492 225.917 278.075 227.448 283.407L233.155 303.37C233.361 304.099 233.766 304.748 234.311 305.265L247.584 317.658C249.851 319.781 251.608 322.263 252.819 325.033C257.411 335.544 269.427 360.709 288.759 385.175C299.794 399.145 313.259 412.838 329.038 423.498C306.643 420.007 279.913 402.891 266.777 392.736C269.077 389.497 272.084 384.22 275.233 375.663C281.394 358.913 237.243 338.186 214.775 328.869L219.18 296.583C219.576 289.094 215.456 282.266 208.656 279.176L166.553 260.438C171.006 258.486 174.864 255.263 177.588 251.124C181.514 245.161 182.677 237.909 180.781 231.229L172.108 200.664C169.32 190.819 162.335 182.818 152.958 178.687L74.9774 144.345C74.8319 142.549 74.9035 140.72 75.3822 138.88C76.5829 134.286 79.5544 130.488 83.7599 128.173ZM80.775 156.546L149.158 186.665C156.252 189.791 161.536 195.847 163.649 203.291L172.322 233.856C173.527 238.114 172.788 242.738 170.284 246.538C167.78 250.339 163.784 252.926 159.309 253.626L152.095 254.765C151.952 254.785 151.829 254.86 151.69 254.899L124.395 220.347L80.775 156.546ZM196.587 311.714L162.168 268.149L204.798 287.123C208.419 288.772 210.621 292.424 210.44 296.064L207.815 315.253C207.6 315.161 207.416 315.021 207.187 314.955L196.587 311.714ZM260.127 376.786L248.691 374.796L220.118 340.827C247.656 353.288 268.969 367.574 266.992 372.933C266.045 375.51 265.134 377.637 264.257 379.555C263.323 378.142 261.892 377.094 260.127 376.786Z" fill="black"/>
<path d="M-13.6815 189.52L-10.5973 187.084L-11.0481 186.513L-10.2966 185.92L-9.8457 186.49L-9.51956 186.233C-9.08942 185.893 -8.6591 185.753 -8.22859 185.812C-7.79386 185.871 -7.401 186.123 -7.05001 186.568C-6.938 186.709 -6.82441 186.902 -6.70925 187.145L-7.51176 187.761C-7.5577 187.66 -7.62921 187.547 -7.72629 187.424C-8.0306 187.039 -8.36356 186.989 -8.72516 187.275L-9.03358 187.518L-8.43149 188.281L-9.18305 188.874L-9.78514 188.112L-12.8694 190.549L-13.6815 189.52ZM-7.26949 191.727C-7.36074 191.572 -7.44836 191.442 -7.53238 191.336C-7.83856 190.948 -8.17042 190.798 -8.52797 190.884L-11.0379 192.867L-11.8472 191.843L-8.01143 188.812L-7.24691 189.78L-7.68183 190.17C-7.16726 190.097 -6.76622 190.243 -6.47871 190.607C-6.38909 190.72 -6.32044 190.839 -6.27275 190.962L-7.26949 191.727ZM-8.02599 192.664C-7.64549 192.363 -7.24846 192.169 -6.83492 192.08C-6.42139 191.991 -6.0248 192.02 -5.64516 192.165C-5.26365 192.313 -4.92914 192.569 -4.64163 192.933C-4.23277 193.45 -4.05786 193.997 -4.11692 194.573C-4.17411 195.152 -4.45956 195.675 -4.97327 196.142L-5.23001 196.357C-5.8185 196.821 -6.42093 197.031 -7.03731 196.984C-7.65132 196.936 -8.17676 196.635 -8.61363 196.082C-9.0505 195.529 -9.22236 194.947 -9.12922 194.336C-9.03422 193.727 -8.68184 193.182 -8.07208 192.7L-8.02599 192.664ZM-7.29112 193.747C-7.65508 194.035 -7.87982 194.324 -7.96534 194.614C-8.04849 194.902 -7.98925 195.174 -7.78762 195.429C-7.59159 195.677 -7.34397 195.797 -7.04475 195.787C-6.74316 195.775 -6.38321 195.604 -5.96488 195.273C-5.60801 194.991 -5.38657 194.703 -5.30056 194.409C-5.21454 194.114 -5.27142 193.841 -5.47118 193.588C-5.66908 193.337 -5.92025 193.221 -6.22469 193.239C-6.52678 193.255 -6.88225 193.424 -7.29112 193.747ZM-2.01572 196.403L-2.41948 196.773C-1.87154 196.782 -1.41461 197.018 -1.04869 197.481C-0.658496 197.975 -0.585569 198.468 -0.829908 198.96C-0.227115 198.922 0.271244 199.152 0.665171 199.651C0.993753 200.066 1.11661 200.472 1.03374 200.868C0.953226 201.261 0.669542 201.651 0.182681 202.035L-2.26698 203.97L-3.07911 202.942L-0.632986 201.01C-0.415554 200.838 -0.290811 200.671 -0.258758 200.507C-0.224342 200.342 -0.29208 200.151 -0.461972 199.936C-0.704676 199.629 -1.01923 199.532 -1.40564 199.646L-4.03685 201.73L-4.84617 200.705L-2.4036 198.776C-2.18144 198.6 -2.05527 198.43 -2.02508 198.264C-1.99489 198.098 -2.06288 197.91 -2.22904 197.699C-2.45867 197.409 -2.74536 197.294 -3.08911 197.354L-5.80112 199.496L-6.61044 198.472L-2.77464 195.442L-2.01572 196.403ZM5.53347 204.02L4.59047 204.765L5.10855 205.421L4.35699 206.015L3.83891 205.359L1.92455 206.871C1.78275 206.983 1.70259 207.091 1.68409 207.194C1.66558 207.297 1.717 207.425 1.83835 207.578C1.92796 207.692 2.01558 207.786 2.1012 207.86L1.32482 208.473C1.10469 208.321 0.910604 208.139 0.742578 207.926C0.175026 207.207 0.248431 206.555 0.962793 205.967L3.02959 204.335L2.58712 203.774L3.33868 203.181L3.78115 203.741L4.72414 202.996L5.53347 204.02ZM5.93081 207.322C6.47166 207.336 6.90451 207.549 7.22936 207.96C7.88652 208.792 7.73646 209.596 6.77916 210.371L4.32241 212.312L3.51309 211.287L5.94148 209.369C6.16128 209.195 6.28583 209.02 6.31514 208.844C6.34682 208.665 6.27584 208.466 6.10222 208.246C5.86511 207.946 5.57755 207.82 5.23952 207.868L2.51334 210.022L1.70401 208.997L7.14929 204.696L7.95861 205.72L5.93081 207.322ZM6.25661 214.906C5.81228 214.344 5.62262 213.749 5.68763 213.122C5.75451 212.497 6.07511 211.958 6.64941 211.504L6.74867 211.426C7.13391 211.122 7.53659 210.924 7.95673 210.834C8.37922 210.742 8.77936 210.768 9.15713 210.911C9.53913 211.054 9.86829 211.301 10.1446 211.651C10.5591 212.175 10.7194 212.718 10.6256 213.28C10.5337 213.844 10.1841 214.366 9.57668 214.846L9.15836 215.176L7.22887 212.733C7.00449 212.964 6.88201 213.222 6.86144 213.507C6.84273 213.795 6.9342 214.066 7.13583 214.321C7.44761 214.716 7.83423 214.911 8.29569 214.907L8.12968 215.856C7.7909 215.874 7.45644 215.801 7.12631 215.635C6.79855 215.468 6.50865 215.225 6.25661 214.906ZM9.31224 212.302C9.15169 212.099 8.95246 211.988 8.71457 211.969C8.47854 211.952 8.21891 212.026 7.93565 212.192L9.06142 213.618L9.14296 213.553C9.36611 213.369 9.49247 213.17 9.52201 212.954C9.55393 212.737 9.484 212.52 9.31224 212.302ZM12.8329 223.085L11.9928 222.022L13.7535 217.269L10.3573 219.952L9.51719 218.888L14.6789 214.811L15.519 215.874L13.7539 220.636L17.1572 217.948L17.9946 219.008L12.8329 223.085ZM15.3407 222.244C15.7212 221.944 16.1183 221.749 16.5318 221.66C16.9453 221.572 17.3419 221.6 17.7216 221.745C18.1031 221.893 18.4376 222.149 18.7251 222.513C19.134 223.03 19.3089 223.577 19.2498 224.154C19.1926 224.732 18.9072 225.255 18.3934 225.723L18.1367 225.937C17.5482 226.402 16.9458 226.611 16.3294 226.564C15.7154 226.516 15.19 226.215 14.7531 225.662C14.3162 225.109 14.1444 224.527 14.2375 223.916C14.3325 223.308 14.6849 222.762 15.2946 222.281L15.3407 222.244ZM16.0756 223.328C15.7116 223.615 15.4869 223.904 15.4014 224.194C15.3182 224.483 15.3775 224.754 15.5791 225.01C15.7751 225.258 16.0228 225.377 16.322 225.367C16.6236 225.355 16.9835 225.184 17.4018 224.854C17.7587 224.572 17.9802 224.284 18.0662 223.989C18.1522 223.695 18.0953 223.421 17.8955 223.168C17.6976 222.918 17.4465 222.801 17.142 222.819C16.8399 222.835 16.4845 223.005 16.0756 223.328ZM18.9609 230.041C18.4539 230.031 18.024 229.803 17.6711 229.356C17.3463 228.945 17.2161 228.537 17.2807 228.133C17.3472 227.731 17.6066 227.348 18.059 226.983L20.5725 224.997L21.3818 226.022L18.9038 227.979C18.5044 228.295 18.4484 228.635 18.7359 228.999C19.0104 229.346 19.3195 229.489 19.6632 229.429L22.3787 227.284L23.1909 228.312L19.3551 231.342L18.5934 230.378L18.9609 230.041ZM24.5463 230.028L24.1283 230.41C24.6876 230.413 25.1493 230.645 25.5133 231.106C25.8344 231.513 25.954 231.91 25.8722 232.297C25.7903 232.684 25.5137 233.067 25.0424 233.447L22.5644 235.405L21.755 234.38L24.2082 232.442C24.4257 232.271 24.5455 232.099 24.5677 231.928C24.5923 231.755 24.5178 231.559 24.3442 231.339C24.1164 231.051 23.8227 230.931 23.463 230.981L20.7581 233.118L19.9488 232.094L23.7846 229.064L24.5463 230.028ZM27.3206 237.687L25.502 239.124L24.6619 238.06L29.8235 233.983L31.4142 235.996C31.7204 236.384 31.9183 236.78 32.008 237.185C32.0996 237.593 32.0767 237.979 31.9395 238.345C31.8046 238.708 31.5705 239.022 31.2373 239.285C30.7315 239.685 30.1949 239.826 29.6274 239.711C29.0641 239.595 28.5407 239.231 28.0571 238.619L27.3206 237.687ZM28.1821 237.006L28.9326 237.956C29.1548 238.238 29.3899 238.399 29.638 238.441C29.888 238.486 30.1359 238.411 30.3817 238.217C30.6345 238.017 30.7802 237.781 30.8185 237.509C30.8569 237.237 30.7748 236.968 30.5723 236.702L29.8022 235.727L28.1821 237.006ZM32.8886 242.564C32.7973 242.409 32.7097 242.279 32.6257 242.172C32.3195 241.785 31.9876 241.634 31.6301 241.721L29.1201 243.704L28.3108 242.679L32.1466 239.649L32.9111 240.617L32.4762 241.007C32.9908 240.934 33.3918 241.08 33.6793 241.444C33.769 241.557 33.8376 241.676 33.8853 241.799L32.8886 242.564ZM32.1321 243.501C32.5126 243.2 32.9096 243.006 33.3231 242.917C33.7367 242.828 34.1333 242.856 34.5129 243.002C34.8944 243.15 35.2289 243.405 35.5164 243.769C35.9253 244.287 36.1002 244.834 36.0411 245.41C35.9839 245.989 35.6985 246.512 35.1848 246.979L34.928 247.193C34.3396 247.658 33.7371 247.867 33.1207 247.821C32.5067 247.772 31.9813 247.472 31.5444 246.918C31.1076 246.365 30.9357 245.783 31.0288 245.173C31.1238 244.564 31.4762 244.019 32.086 243.537L32.1321 243.501ZM32.8669 244.584C32.503 244.872 32.2782 245.16 32.1927 245.451C32.1096 245.739 32.1688 246.011 32.3704 246.266C32.5665 246.514 32.8141 246.633 33.1133 246.623C33.4149 246.612 33.7748 246.44 34.1932 246.11C34.55 245.828 34.7715 245.54 34.8575 245.246C34.9435 244.951 34.8866 244.677 34.6869 244.425C34.489 244.174 34.2378 244.058 33.9334 244.076C33.6313 244.092 33.2758 244.261 32.8669 244.584ZM38.2403 247.363L34.1954 250.559C33.7723 250.893 33.3551 251.04 32.9438 251C32.5301 250.963 32.1562 250.732 31.822 250.309C31.682 250.132 31.5686 249.947 31.4818 249.754L32.2936 249.113C32.3694 249.253 32.4437 249.369 32.5165 249.461C32.7611 249.771 33.0477 249.796 33.3762 249.536L37.4282 246.335L38.2403 247.363ZM38.3564 245.47C38.5101 245.348 38.6766 245.299 38.8562 245.322C39.0376 245.348 39.1983 245.449 39.3383 245.627C39.4783 245.804 39.5389 245.983 39.5199 246.163C39.5028 246.345 39.4174 246.497 39.2638 246.618C39.1078 246.741 38.9382 246.789 38.7549 246.761C38.5735 246.736 38.4146 246.636 38.2783 246.464C38.1421 246.291 38.0815 246.113 38.0968 245.928C38.1139 245.746 38.2005 245.593 38.3564 245.47ZM36.3611 253.016C35.9168 252.454 35.7272 251.859 35.7922 251.232C35.859 250.607 36.1796 250.068 36.7539 249.614L36.8532 249.536C37.2384 249.231 37.6411 249.034 38.0613 248.944C38.4838 248.852 38.8839 248.878 39.2617 249.021C39.6437 249.164 39.9728 249.411 40.2491 249.761C40.6636 250.285 40.8239 250.828 40.7302 251.39C40.6383 251.954 40.2886 252.476 39.6812 252.955L39.2629 253.286L37.3334 250.843C37.109 251.074 36.9865 251.332 36.966 251.617C36.9473 251.904 37.0387 252.176 37.2404 252.431C37.5521 252.826 37.9388 253.021 38.4002 253.017L38.2342 253.966C37.8954 253.984 37.561 253.911 37.2308 253.745C36.9031 253.578 36.6132 253.335 36.3611 253.016ZM39.4168 250.412C39.2562 250.209 39.057 250.098 38.8191 250.078C38.5831 250.061 38.3234 250.136 38.0402 250.302L39.166 251.727L39.2475 251.663C39.4706 251.479 39.597 251.279 39.6265 251.064C39.6585 250.847 39.5885 250.63 39.4168 250.412ZM40.1556 256.121C40.305 256.31 40.4783 256.423 40.6756 256.459C40.873 256.495 41.0598 256.447 41.236 256.316L41.995 257.276C41.7331 257.479 41.4384 257.597 41.1108 257.629C40.7856 257.66 40.4666 257.601 40.1537 257.453C39.8451 257.305 39.5751 257.085 39.3436 256.792C38.9105 256.243 38.7425 255.674 38.8398 255.082C38.9394 254.489 39.2964 253.95 39.9109 253.465L39.9783 253.412C40.5691 252.945 41.1648 252.73 41.7652 252.766C42.3657 252.802 42.8825 253.094 43.3156 253.642C43.6946 254.122 43.8609 254.615 43.8145 255.119C43.7723 255.625 43.5262 256.059 43.0762 256.422L42.3173 255.462C42.5121 255.3 42.6243 255.112 42.6538 254.896C42.6857 254.679 42.6251 254.474 42.472 254.28C42.2835 254.041 42.0532 253.93 41.7812 253.945C41.5135 253.961 41.1846 254.122 40.7947 254.431L40.6883 254.515C40.2936 254.826 40.0576 255.111 39.9803 255.367C39.903 255.624 39.9614 255.876 40.1556 256.121ZM46.8789 256.36L45.9359 257.105L46.454 257.761L45.7024 258.355L45.1843 257.699L43.27 259.211C43.1282 259.323 43.048 259.431 43.0295 259.534C43.011 259.636 43.0624 259.765 43.1838 259.918C43.2734 260.032 43.361 260.126 43.4466 260.2L42.6703 260.813C42.4501 260.661 42.256 260.478 42.088 260.266C41.5205 259.547 41.5939 258.894 42.3082 258.307L44.375 256.674L43.9326 256.114L44.6841 255.521L45.1266 256.081L46.0696 255.336L46.8789 256.36Z" fill="black"/>
</g>
<g clip-path="url(#clip1)">
<path d="M358.441 542.053C358.173 541.727 357.93 541.377 357.712 541.021L344.401 519.295C337.118 507.417 337.414 492.69 345.151 481.785L389.374 419.382L423.839 363.409L439.05 327.311C435.369 326.023 432.664 322.577 432.75 318.531C432.848 313.647 436.875 309.946 441.75 310.261L446.117 310.543L451.414 297.97C448.095 296.496 445.758 293.17 445.83 289.381C445.929 284.497 449.955 280.797 454.83 281.112L458.416 281.343L464.451 267.019C461.455 265.42 459.391 262.262 459.462 258.703C459.56 253.819 463.587 250.119 468.462 250.433L471.357 250.62L477.589 235.829C473.52 235.2 470.182 231.796 469.776 227.531C469.308 222.643 472.869 218.479 477.718 218.229L480.253 218.1L473.401 165.75C473.145 163.769 473.551 161.784 474.563 160.117L488.195 137.734C492.015 131.458 498.994 128.228 506.424 129.288C513.853 130.338 520.023 135.443 522.453 142.381L540.224 189.255C560.061 185.31 578.029 183.624 584.344 183.113C588.915 178.455 587.608 159.377 576.075 129.553C574.068 124.354 574.461 118.692 577.162 114.026C579.872 109.344 584.548 106.257 590.001 105.574L626.347 101.08C628.61 100.8 630.925 101.421 632.817 102.807L635.091 104.481C637.468 103.107 640.453 102.966 643.106 104.176L685.922 123.8C689.182 125.295 691.324 128.554 691.378 132.096L691.46 137.756L707.741 150.331C727.55 164.402 740.902 167.963 747.441 160.874C749.369 158.832 752.188 157.846 755.044 158.297C768.652 160.477 778.554 166.603 784.51 176.525L803.738 191.531C812.804 198.605 818.64 209.129 819.754 220.4C820.865 231.667 817.157 242.715 809.582 250.705L732.667 331.876L615.27 439.748C614.014 440.902 612.425 441.643 610.712 441.875L599.006 443.46L596.177 455.337C595.782 456.976 594.924 458.444 593.702 459.567C593.638 459.625 593.574 459.684 593.511 459.734L532.054 512.793C530.553 514.09 528.632 514.809 526.611 514.833L514.047 514.957L510.636 526.141C510.012 528.196 508.628 529.909 506.787 530.963C502.393 533.462 398.767 591.517 358.441 542.053ZM372.282 531.658C375.504 535.463 379.483 538.269 384.012 540.285C384.15 540.223 384.248 540.108 384.395 540.055C400.453 534.569 415.454 526.503 429.225 517.105C429.173 516.58 429.087 516.062 429.181 515.525L441.011 447.49C418.103 464.972 380.234 492.022 357.031 498.896C356.37 502.775 357.124 506.909 359.321 510.502L372.282 531.658ZM505.905 147.81C505.823 147.575 505.602 146.952 504.713 146.828C503.824 146.704 503.493 147.245 503.364 147.454L491.287 167.271L495.93 202.746C504.083 198.895 513.467 195.745 523.102 193.199L505.905 147.81ZM625.735 119.1L592.913 123.162L591.453 114.368L592.492 123.786C608.689 165.677 608.525 191.245 591.903 199.703C590.881 200.225 589.758 200.537 588.599 200.612C588.078 200.649 540.044 203.998 509.041 216.607L524.872 215.788C529.72 215.537 534.035 219.295 534.499 224.178C534.767 226.991 533.703 229.564 531.824 231.291C530.44 232.562 528.612 233.375 526.557 233.48L497.398 234.987L490.299 251.833L491.073 251.883C495.944 252.193 499.82 256.411 499.718 261.291C499.669 263.733 498.634 265.878 497.005 267.375C495.375 268.872 493.151 269.722 490.713 269.565L483.035 269.069L477.35 282.556L479.771 282.712C484.641 283.022 488.517 287.24 488.415 292.12C488.366 294.562 487.332 296.707 485.702 298.204C484.073 299.701 481.848 300.551 479.411 300.393L470.085 299.792L465.043 311.755L465.908 311.811C470.779 312.121 474.655 316.339 474.553 321.219C474.504 323.661 473.469 325.805 471.84 327.303C470.21 328.8 467.986 329.649 465.548 329.492L457.779 328.991L439.869 371.503C439.703 371.901 439.508 372.285 439.284 372.646L404.183 429.613L367.194 481.843C390.807 470.118 422.175 446.8 436.681 435.623C440.036 433.039 444.611 432.9 448.337 435.252C452.076 437.617 454.006 441.889 453.271 446.131L442.646 507.26C444.576 505.74 446.481 504.202 448.349 502.65C447.512 501.194 447.213 499.464 447.767 497.801L505.226 325.797C500.172 325.099 495.719 322.025 493.216 317.265C490.231 311.598 490.811 305.126 494.713 300.379L524.443 264.25C533.272 253.529 545.101 245.988 558.482 242.512L586.532 234.261L633.923 124.28C632.841 123.989 631.788 123.55 630.832 122.85L625.735 119.1ZM679.58 150.454C677.959 154.047 665.658 182.554 682.545 183.643C695.706 184.492 718.812 182.214 730.341 180.922C720.846 178.619 709.961 173.152 697.671 164.419L679.58 150.454ZM507.168 314.155L552.323 312.511C553.054 311.169 553.793 309.819 554.592 308.406L580.398 248.519L562.089 253.906C550.827 256.835 541.005 263.086 533.662 272.009L503.932 308.138C502.587 309.775 503.236 311.461 503.577 312.113C503.918 312.765 504.937 314.266 507.168 314.155ZM604.38 290.912C604.38 290.912 596.442 308.718 624.009 304.993L632.22 283.975C644.365 248.552 672.593 243.033 682.63 242.203L698.552 214.673L672.397 222.278C672.397 222.278 629.706 226.918 622.03 252.632L604.38 290.912ZM609.595 341.855L609.616 341.844L609.783 341.42L609.595 341.855ZM546.187 324.571L517.866 325.602L463.146 489.43C490.67 463.165 509.762 435.396 517.42 423.41C520.43 418.705 524.342 414.71 529.071 411.535L548.031 398.809L559.131 374.931C562.248 368.239 567.072 362.579 573.044 358.433L546.578 364.983C546.586 365 526.935 365.732 546.187 324.571ZM793.29 205.328L772.578 189.167C771.524 188.343 770.658 187.307 770.036 186.128C768.668 183.523 766.224 180.199 760.631 177.877L734.723 192.734C725.301 198.143 717.451 205.978 712.01 215.386L691.351 251.107C690.303 252.921 688.336 253.984 686.21 253.876C685.902 253.864 655.519 252.839 643.291 288.478L619.756 348.74C619.212 350.14 618.144 351.244 616.771 351.827L585.343 365.276C578.495 368.223 572.99 373.568 569.843 380.32L558.09 405.608C557.663 406.532 556.989 407.306 556.158 407.874L535.922 421.453C532.465 423.779 529.611 426.696 527.423 430.114C519.124 443.081 497.897 473.908 467.087 502.21C449.499 518.371 428.738 533.635 405.533 544.364C436.039 544.605 475.154 527.683 494.739 517.05C492.357 512.244 489.459 504.575 487.056 492.516C482.358 468.913 545.391 450.989 577.211 443.502L578.089 399.633C579.123 389.594 586.027 381.419 595.713 378.793L655.607 363.066C650.093 359.501 645.636 354.377 642.876 348.283C638.901 339.501 638.866 329.61 642.78 321.146L660.689 282.415C666.45 269.939 677.408 260.827 690.738 257.381L801.594 228.734C802.162 226.38 802.449 223.932 802.196 221.383C801.558 215.016 798.399 209.321 793.29 205.328ZM791.34 243.687L694.127 268.811C684.042 271.42 675.752 278.316 671.39 287.749L653.481 326.48C650.99 331.878 651.009 338.184 653.546 343.78C656.082 349.376 660.856 353.686 666.661 355.592L676.015 358.678C676.202 358.736 676.349 358.862 676.526 358.945L720.028 318.972L791.34 243.687ZM604.973 424.668L659.83 374.27L599.186 390.195C594.027 391.598 590.336 395.971 589.817 400.849L589.306 426.924C589.611 426.848 589.885 426.703 590.202 426.665L604.973 424.668ZM506.91 497.301L522.531 497.149L567.611 458.23C528.395 468.79 497.074 483.131 498.584 490.685C499.306 494.316 500.075 497.34 500.84 500.081C502.377 498.407 504.498 497.325 506.91 497.301Z" fill="black"/>
<path d="M908.14 305.572L905.481 302.677L906.017 302.185L905.369 301.48L904.833 301.972L904.552 301.666C904.181 301.262 903.778 301.056 903.344 301.046C902.905 301.036 902.477 301.222 902.06 301.606C901.927 301.728 901.785 301.9 901.632 302.121L902.327 302.857C902.389 302.764 902.477 302.664 902.592 302.558C902.954 302.226 903.291 302.23 903.602 302.569L903.868 302.859L903.153 303.516L903.801 304.221L904.516 303.564L907.176 306.458L908.14 305.572ZM901.46 306.734C901.574 306.596 901.682 306.481 901.781 306.39C902.145 306.056 902.497 305.96 902.836 306.102L905 308.457L905.961 307.574L902.654 303.974L901.746 304.809L902.114 305.262C901.617 305.109 901.198 305.19 900.856 305.503C900.75 305.601 900.663 305.707 900.597 305.822L901.46 306.734ZM902.058 307.78C901.73 307.423 901.369 307.167 900.975 307.014C900.58 306.861 900.184 306.826 899.787 306.91C899.386 306.995 899.016 307.195 898.674 307.509C898.188 307.955 897.929 308.467 897.896 309.046C897.861 309.626 898.06 310.188 898.493 310.73L898.713 310.983C899.22 311.535 899.782 311.837 900.398 311.888C901.012 311.938 901.578 311.724 902.097 311.247C902.616 310.77 902.878 310.223 902.883 309.605C902.885 308.989 902.624 308.395 902.098 307.823L902.058 307.78ZM901.161 308.733C901.475 309.074 901.651 309.395 901.69 309.695C901.726 309.993 901.624 310.252 901.385 310.472C901.152 310.686 900.889 310.764 900.595 310.707C900.299 310.648 899.971 310.422 899.61 310.029C899.302 309.694 899.129 309.375 899.091 309.071C899.053 308.766 899.152 308.505 899.389 308.287C899.624 308.071 899.891 307.996 900.189 308.062C900.484 308.125 900.809 308.349 901.161 308.733ZM895.532 310.519L895.872 310.949C895.329 310.87 894.841 311.031 894.406 311.43C893.943 311.856 893.792 312.332 893.956 312.857C893.367 312.723 892.838 312.871 892.37 313.301C891.98 313.66 891.794 314.041 891.813 314.445C891.831 314.846 892.049 315.275 892.469 315.732L894.581 318.031L895.546 317.144L893.437 314.849C893.249 314.645 893.152 314.46 893.147 314.293C893.139 314.124 893.236 313.947 893.438 313.762C893.726 313.497 894.052 313.451 894.416 313.624L896.683 316.099L897.645 315.216L895.539 312.923C895.347 312.715 895.25 312.527 895.246 312.358C895.243 312.189 895.339 312.014 895.537 311.833C895.81 311.582 896.111 311.514 896.441 311.628L898.779 314.173L899.741 313.29L896.433 309.69L895.532 310.519ZM886.871 316.845L887.684 317.73L887.069 318.295L887.717 319L888.332 318.435L889.983 320.231C890.105 320.364 890.167 320.483 890.169 320.588C890.171 320.692 890.1 320.811 889.956 320.943C889.849 321.041 889.748 321.12 889.652 321.18L890.321 321.908C890.563 321.793 890.783 321.643 890.983 321.46C891.657 320.84 891.688 320.184 891.076 319.491L889.294 317.551L889.819 317.068L889.171 316.363L888.646 316.846L887.832 315.961L886.871 316.845ZM885.956 320.042C885.419 319.97 884.958 320.112 884.573 320.466C883.792 321.183 883.813 322.001 884.635 322.918L886.753 325.223L887.715 324.34L885.621 322.061C885.431 321.855 885.336 321.662 885.335 321.483C885.332 321.302 885.434 321.116 885.64 320.927C885.922 320.668 886.226 320.589 886.552 320.69L888.902 323.249L889.864 322.365L885.169 317.256L884.207 318.139L885.956 320.042ZM884.433 327.478C884.961 326.993 885.242 326.436 885.277 325.807C885.31 325.179 885.079 324.596 884.584 324.057L884.498 323.964C884.166 323.603 883.8 323.344 883.399 323.189C882.996 323.031 882.597 322.993 882.202 323.074C881.802 323.155 881.438 323.347 881.109 323.648C880.617 324.101 880.373 324.611 880.376 325.181C880.378 325.752 880.64 326.323 881.164 326.893L881.525 327.285L883.817 325.179C884.002 325.443 884.082 325.717 884.057 326.001C884.03 326.288 883.897 326.541 883.657 326.761C883.287 327.102 882.874 327.233 882.419 327.157L882.433 328.12C882.764 328.191 883.106 328.172 883.458 328.061C883.809 327.948 884.133 327.754 884.433 327.478ZM881.828 324.424C882.019 324.248 882.233 324.17 882.471 324.189C882.707 324.209 882.951 324.324 883.205 324.533L881.867 325.762L881.797 325.685C881.606 325.468 881.513 325.251 881.518 325.034C881.521 324.814 881.624 324.611 881.828 324.424ZM876.644 334.513L877.642 333.596L876.656 328.624L879.585 331.811L880.583 330.894L876.132 326.05L875.134 326.967L876.122 331.949L873.188 328.755L872.193 329.669L876.644 334.513ZM874.301 333.285C873.973 332.928 873.612 332.673 873.217 332.52C872.823 332.367 872.427 332.332 872.029 332.415C871.629 332.501 871.258 332.7 870.917 333.014C870.431 333.46 870.172 333.973 870.139 334.551C870.103 335.131 870.302 335.693 870.736 336.236L870.955 336.488C871.463 337.04 872.024 337.342 872.64 337.394C873.254 337.443 873.821 337.229 874.34 336.753C874.859 336.276 875.121 335.728 875.125 335.11C875.128 334.494 874.866 333.9 874.341 333.328L874.301 333.285ZM873.404 334.238C873.717 334.58 873.894 334.901 873.932 335.201C873.969 335.498 873.867 335.757 873.627 335.977C873.395 336.191 873.131 336.27 872.837 336.213C872.541 336.153 872.213 335.927 871.852 335.535C871.545 335.2 871.372 334.88 871.333 334.576C871.295 334.272 871.395 334.01 871.632 333.792C871.867 333.576 872.133 333.501 872.431 333.567C872.727 333.631 873.051 333.855 873.404 334.238ZM869.491 340.41C869.993 340.48 870.454 340.323 870.873 339.938C871.259 339.583 871.452 339.201 871.453 338.792C871.451 338.385 871.255 337.965 870.866 337.533L868.699 335.174L867.738 336.058L869.874 338.383C870.219 338.758 870.22 339.102 869.879 339.416C869.553 339.716 869.225 339.808 868.895 339.694L866.553 337.146L865.589 338.032L868.896 341.632L869.801 340.8L869.491 340.41ZM863.979 339.512L864.331 339.955C863.778 339.87 863.285 340.026 862.853 340.423C862.471 340.774 862.29 341.147 862.31 341.542C862.33 341.937 862.542 342.36 862.947 342.81L865.084 345.135L866.045 344.251L863.93 341.949C863.742 341.745 863.651 341.557 863.656 341.385C863.66 341.21 863.764 341.028 863.97 340.838C864.241 340.59 864.55 340.519 864.897 340.625L867.229 343.163L868.191 342.28L864.883 338.68L863.979 339.512ZM860.026 346.635L861.594 348.341L862.592 347.424L858.141 342.581L856.252 344.317C855.888 344.651 855.63 345.011 855.477 345.397C855.322 345.785 855.284 346.17 855.361 346.553C855.437 346.933 855.618 347.28 855.906 347.592C856.342 348.067 856.849 348.292 857.428 348.268C858.002 348.243 858.577 347.967 859.151 347.439L860.026 346.635ZM859.283 345.826L858.392 346.646C858.128 346.888 857.87 347.01 857.618 347.013C857.365 347.017 857.132 346.904 856.92 346.673C856.702 346.436 856.595 346.18 856.6 345.905C856.606 345.63 856.729 345.377 856.971 345.147L857.886 344.306L859.283 345.826ZM853.756 350.568C853.87 350.43 853.978 350.315 854.077 350.223C854.441 349.889 854.793 349.793 855.132 349.935L857.296 352.291L858.257 351.407L854.95 347.808L854.042 348.642L854.41 349.096C853.913 348.943 853.494 349.023 853.152 349.337C853.046 349.435 852.959 349.541 852.893 349.655L853.756 350.568ZM854.354 351.613C854.026 351.256 853.665 351.001 853.271 350.848C852.877 350.695 852.48 350.66 852.083 350.743C851.683 350.829 851.312 351.028 850.97 351.342C850.484 351.788 850.225 352.301 850.192 352.879C850.157 353.46 850.356 354.021 850.789 354.564L851.009 354.816C851.516 355.368 852.078 355.67 852.694 355.722C853.308 355.771 853.874 355.558 854.393 355.081C854.912 354.604 855.174 354.056 855.179 353.439C855.181 352.823 854.92 352.229 854.394 351.656L854.354 351.613ZM853.457 352.566C853.771 352.908 853.947 353.229 853.986 353.529C854.022 353.827 853.92 354.086 853.681 354.306C853.448 354.52 853.185 354.598 852.891 354.541C852.595 354.481 852.267 354.255 851.906 353.863C851.598 353.528 851.425 353.208 851.387 352.904C851.349 352.6 851.448 352.339 851.685 352.121C851.921 351.905 852.187 351.83 852.485 351.895C852.78 351.959 853.105 352.183 853.457 352.566ZM847.711 354.459L851.199 358.255C851.564 358.652 851.952 358.863 852.365 358.889C852.779 358.918 853.185 358.749 853.582 358.385C853.748 358.232 853.89 358.067 854.006 357.891L853.306 357.129C853.209 357.255 853.117 357.358 853.031 357.437C852.74 357.704 852.453 357.683 852.17 357.375L848.676 353.573L847.711 354.459ZM847.897 352.571C847.764 352.427 847.608 352.352 847.427 352.347C847.243 352.343 847.069 352.418 846.902 352.571C846.736 352.723 846.648 352.89 846.638 353.071C846.626 353.254 846.686 353.417 846.819 353.561C846.953 353.708 847.113 353.782 847.299 353.783C847.482 353.787 847.654 353.714 847.816 353.565C847.978 353.417 848.066 353.25 848.08 353.065C848.092 352.882 848.031 352.717 847.897 352.571ZM848.671 360.338C849.199 359.853 849.481 359.296 849.516 358.667C849.549 358.039 849.318 357.456 848.822 356.917L848.737 356.824C848.405 356.462 848.038 356.204 847.638 356.048C847.235 355.891 846.836 355.853 846.44 355.934C846.04 356.015 845.676 356.206 845.348 356.508C844.856 356.96 844.611 357.471 844.615 358.041C844.617 358.612 844.879 359.183 845.403 359.752L845.764 360.145L848.056 358.039C848.241 358.303 848.321 358.577 848.296 358.861C848.269 359.148 848.135 359.401 847.896 359.621C847.526 359.962 847.113 360.093 846.658 360.017L846.671 360.98C847.003 361.051 847.345 361.031 847.697 360.921C848.047 360.808 848.372 360.613 848.671 360.338ZM846.067 357.283C846.258 357.108 846.472 357.03 846.71 357.048C846.946 357.069 847.19 357.184 847.443 357.393L846.106 358.622L846.036 358.545C845.845 358.328 845.751 358.111 845.756 357.894C845.759 357.674 845.863 357.471 846.067 357.283ZM844.433 362.803C844.256 362.966 844.067 363.05 843.866 363.054C843.665 363.059 843.489 362.982 843.335 362.824L842.434 363.652C842.66 363.894 842.933 364.057 843.251 364.141C843.567 364.223 843.892 364.215 844.224 364.118C844.552 364.021 844.854 363.846 845.129 363.594C845.643 363.121 845.899 362.585 845.897 361.986C845.892 361.385 845.625 360.796 845.095 360.219L845.037 360.156C844.528 359.601 843.974 359.295 843.375 359.235C842.777 359.176 842.22 359.382 841.706 359.855C841.255 360.269 841.013 360.729 840.979 361.234C840.941 361.74 841.115 362.208 841.502 362.638L842.403 361.809C842.236 361.619 842.155 361.415 842.16 361.198C842.163 360.979 842.256 360.785 842.437 360.618C842.661 360.412 842.906 360.339 843.173 360.397C843.434 360.455 843.734 360.667 844.07 361.033L844.161 361.132C844.502 361.503 844.69 361.821 844.725 362.087C844.761 362.353 844.664 362.591 844.433 362.803ZM837.757 361.974L838.57 362.859L837.954 363.425L838.602 364.13L839.218 363.564L840.868 365.361C840.991 365.494 841.053 365.613 841.055 365.717C841.057 365.822 840.986 365.94 840.842 366.073C840.735 366.171 840.634 366.249 840.537 366.309L841.207 367.038C841.448 366.922 841.669 366.773 841.868 366.589C842.543 365.97 842.574 365.314 841.961 364.62L840.179 362.681L840.705 362.198L840.057 361.493L839.531 361.976L838.718 361.091L837.757 361.974Z" fill="black"/>
</g>
<defs>
<clipPath id="clip0">
<rect width="421.652" height="285.971" fill="white" transform="translate(224.851) rotate(51.6933)"/>
</clipPath>
<clipPath id="clip1">
<rect width="565.725" height="386.362" fill="white" transform="matrix(-0.736347 0.676605 0.676605 0.736347 632.416 4.23325)"/>
</clipPath>
</defs>
</svg>
